<?xml version="1.0" standalone="no"?>
<!DOCTYPE svg PUBLIC "-//W3C//DTD SVG 20010904//EN"
 "http://www.w3.org/TR/2001/REC-SVG-20010904/DTD/svg10.dtd">
<svg version="1.0" xmlns="http://www.w3.org/2000/svg"
 width="158.000000pt" height="132.000000pt" viewBox="0 0 158.000000 132.000000"
 preserveAspectRatio="xMidYMid meet">

<g transform="translate(0.000000,132.000000) scale(0.100000,-0.100000)"
fill="#000000" stroke="none">
<path d="M733 1081 c-37 -23 -53 -49 -53 -86 0 -35 -21 -40 -61 -16 -52 32
-95 27 -135 -13 -40 -40 -45 -83 -13 -135 23 -38 19 -61 -11 -61 -29 0 -77
-27 -90 -49 -5 -11 -10 -38 -10 -61 0 -33 6 -48 29 -71 16 -16 38 -29 49 -29
49 0 70 -33 38 -59 -39 -32 -22 -123 28 -157 32 -20 98 -14 126 11 26 24 46
13 54 -27 7 -38 48 -82 85 -91 53 -13 118 36 127 95 7 44 18 46 69 17 44 -26
87 -20 127 18 34 33 38 93 9 137 -24 36 -17 56 20 56 18 0 41 11 61 29 28 25
33 36 33 75 0 36 -6 51 -29 75 -19 20 -40 31 -57 31 -44 0 -55 23 -30 63 34
55 25 111 -23 149 -30 25 -97 23 -130 -3 -21 -17 -29 -19 -41 -9 -8 7 -15 23
-15 36 0 13 -12 37 -27 54 -37 40 -86 48 -130 21z m75 -63 c5 -7 13 -27 16
-44 15 -68 106 -105 153 -61 25 22 62 22 70 0 4 -9 -3 -33 -15 -54 -25 -43
-27 -67 -11 -103 12 -25 63 -56 92 -56 20 0 40 -27 33 -45 -6 -16 -12 -19 -58
-29 -63 -14 -89 -76 -58 -140 24 -50 25 -60 5 -76 -12 -10 -21 -8 -48 9 -70
43 -156 10 -157 -60 0 -31 -17 -49 -46 -49 -23 0 -34 17 -34 52 0 11 -14 33
-30 50 -27 27 -36 30 -71 25 -22 -3 -49 -13 -59 -22 -22 -20 -49 -17 -63 6 -8
12 -5 24 11 47 26 35 28 88 7 120 -9 12 -37 28 -63 35 -42 13 -47 17 -47 43 0
21 5 30 20 32 44 7 77 26 90 53 20 39 19 64 -7 108 -19 33 -20 41 -9 55 18 22
36 20 71 -5 56 -42 150 1 150 70 0 43 35 67 58 39z"/>
<path d="M720 792 c-48 -25 -84 -97 -74 -147 4 -21 20 -52 36 -71 82 -94 232
-45 245 79 11 111 -110 192 -207 139z m115 -77 c14 -13 25 -35 25 -47 0 -56
-61 -93 -106 -63 -37 24 -48 52 -34 86 23 54 75 65 115 24z"/>
</g>
</svg>
