<?xml version="1.0" standalone="no"?>
<!DOCTYPE svg PUBLIC "-//W3C//DTD SVG 20010904//EN"
 "http://www.w3.org/TR/2001/REC-SVG-20010904/DTD/svg10.dtd">
<svg version="1.0" xmlns="http://www.w3.org/2000/svg"
 width="124.000000pt" height="108.000000pt" viewBox="0 0 124.000000 108.000000"
 preserveAspectRatio="xMidYMid meet">

<g transform="translate(0.000000,108.000000) scale(0.100000,-0.100000)"
fill="#000000" stroke="none">
<path d="M608 950 c-111 -33 -178 -136 -178 -274 0 -98 -32 -194 -86 -259 -19
-23 -22 -32 -14 -48 10 -18 25 -19 345 -19 183 0 340 3 349 6 23 9 20 48 -5
70 -47 42 -73 128 -83 267 -7 98 -30 150 -88 204 -64 58 -156 78 -240 53z
m159 -81 c61 -30 89 -82 97 -184 8 -95 23 -165 47 -222 l18 -43 -245 0 c-231
0 -246 1 -239 18 30 69 48 138 52 207 8 132 34 189 101 225 49 25 115 25 169
-1z"/>
<path d="M602 268 c-20 -20 -13 -45 20 -73 26 -22 39 -26 71 -22 70 9 110 72
65 101 -13 8 -22 5 -42 -13 -26 -24 -59 -22 -70 4 -7 18 -28 19 -44 3z"/>
</g>
</svg>
