<?xml version="1.0"?>
<svg width="1024" height="1024" xmlns="http://www.w3.org/2000/svg" xmlns:svg="http://www.w3.org/2000/svg" preserveAspectRatio="xMidYMid meet" version="1.0">
 <g class="layer">
  <title>Layer 1</title>
  <g fill="#000000" id="svg_1" transform="translate(0 1024) matrix(0.1 0 0 -0.1 0 0)">
   <path d="m6080,8726c-90,-34 -715,-396 -1130,-656c-1173,-733 -1852,-1460 -2086,-2229c-77,-253 -99,-414 -99,-721c0,-272 9,-353 60,-565c133,-553 425,-1009 875,-1367c159,-126 454,-309 470,-291c4,4 37,87 73,183c77,204 274,726 412,1090c119,313 215,573 246,661c27,77 19,112 -27,129c-15,6 -198,10 -454,10l-430,0l-16,25c-20,30 -13,54 34,120c20,28 119,167 222,310c321,449 515,724 872,1235c267,383 421,605 532,768c66,95 130,181 143,191c44,36 88,4 80,-56c-3,-21 -85,-272 -182,-558c-238,-704 -416,-1254 -417,-1289c-1,-19 7,-36 22,-48c23,-19 40,-19 461,-12c400,6 440,6 463,-10c31,-20 34,-58 7,-101c-10,-16 -137,-190 -282,-387c-746,-1008 -1004,-1365 -1226,-1698c-243,-365 -362,-610 -447,-924c-73,-264 -127,-591 -129,-782c-2,-118 -1,-121 26,-157c41,-54 116,-89 202,-94c62,-4 76,-1 125,24c75,38 108,88 120,179c5,38 21,159 36,269c39,303 100,597 141,683c22,46 55,60 190,77c273,36 536,103 772,197c840,333 1471,1115 1596,1978c23,153 30,429 16,610c-45,589 -278,1352 -689,2260c-149,329 -435,901 -463,926c-32,29 -76,36 -119,20z" fill="#007f00" id="svg_2"/>
  </g>
 </g>
</svg>